<svg xmlns="http://www.w3.org/2000/svg" viewBox="0 0 64 64" fill="none">
  <defs>
    <linearGradient id="runmeGrad" x1="0%" y1="0%" x2="100%" y2="100%">
      <stop offset="0%" stop-color="#6366f1" />
      <stop offset="100%" stop-color="#3b82f6" />
    </linearGradient>
  </defs>
  <path
    d="M48 4C36 12 28 24 22 36C20 40 18 44 16 48L14 56C14 57 15 58 16 57L24 52C28 49 32 44 36 38C42 28 46 18 50 8C50.5 6 49.5 3.5 48 4Z"
    fill="url(#runmeGrad)"
  />
  <path
    d="M22 36C20 40 18 44 16 48L14 56C14 57 15 58 16 57L24 52C28 49 32 44 36 38"
    stroke="#4f46e5"
    stroke-width="1"
    fill="none"
    opacity="0.5"
  />
  <path
    d="M48 4C44 10 40 18 36 26C32 34 28 40 24 46"
    stroke="#818cf8"
    stroke-width="0.75"
    fill="none"
    opacity="0.4"
  />
</svg>
